:SAMPLES-PER-SECOND 24
:FULLY-SPECIFIED
:DEGREES
147
root  13.5042 37.854 29.7507 -175.265 -77.1268 171.307
RightUpLeg  -19.6353 -34.0923 -9.42872
RightLeg  32.25 2.51294 1.45929
RightFoot  -2.91988 -0.0918343 0.963188
RightToes  -1.74623e-010 0 -2.59999e-017
Spine  8.61028 -3.19726 -8.97478
Spine1  14.2486 -6.64317 8.38153
HEad  -32.7404 -40.9972 25.5733
LeftShoulder1  2.34587 -4.10651 -24.6338
LeftArm  9.58499 -2.79982 -48.75
LeftForeArm  44.2789 -77.4699 -58.8161
LeftHand  1.36356 13.5673 19.4455
RightShoulder  3.90464 6.14283 34.5872
RightArm  -24.5695 8.76628 29.7544
RightForeArm  -10.1689 1.28787 12.4158
RightHand  -1.08547 -0.914681 -27.3341
LeftUpLeg  5.71797 18.1677 15.442
LeftLeg  44.2204 15.2274 15.5302
LeftFoot  8.30812 2.02724 -11.7954
LeftToes  -6.27559e-011 -2.10356e-011 8.24929e-012
148
root  12.9509 38.2116 29.9843 -170.419 -76.7746 167.04
RightUpLeg  -18.1093 -32.7363 -11.1531
RightLeg  29.4029 1.84318 0.884143
RightFoot  -2.17045 -0.201027 2.31495
RightToes  -1.74623e-010 0 -2.59999e-017
Spine  8.6301 -3.55875 -6.75387
Spine1  15.0143 -6.16795 6.72733
HEad  -34.7642 -41.9088 27.1648
LeftShoulder1  2.2996 -4.13946 -23.8591
LeftArm  15.1331 -8.62021 -53.4063
LeftForeArm  37.6311 -76.6645 -53.9481
LeftHand  1.14811 12.3564 19.2602
RightShoulder  3.83985 6.17007 33.8102
RightArm  -15.502 5.05762 29.4304
RightForeArm  -0.695784 -2.50012 14.1106
RightHand  -0.630216 -1.91893 -20.8344
LeftUpLeg  0.906862 16.7821 13.7404
LeftLeg  46.1079 2.56318 3.22786
LeftFoot  6.38534 1.78858 -11.7033
LeftToes  -6.27559e-011 -2.10356e-011 8.24929e-012
149
root  12.2771 38.7213 30.1782 -166.651 -76.3116 163.289
RightUpLeg  -14.8567 -29.3734 -13.1476
RightLeg  25.2493 -0.608924 -0.539117
RightFoot  -2.67421 -0.246883 3.01589
RightToes  -1.74623e-010 0 -2.59999e-017
Spine  8.56223 -3.24534 -6.14505
Spine1  15.5103 -5.64113 6.36582
HEad  -35.0466 -42.9574 27.1316
LeftShoulder1  2.23654 -4.07369 -23.2566
LeftArm  22.2859 -13.6236 -58.2492
LeftForeArm  33.0887 -76.0666 -51.0606
LeftHand  0.934868 11.7404 17.3843
RightShoulder  3.85436 6.26345 33.5793
RightArm  1.71982 0.887315 29.5208
RightForeArm  9.87047 -1.07512 16.4217
RightHand  -0.756817 -0.61808 -18.3522
LeftUpLeg  -1.48108 17.71 13.3293
LeftLeg  43.3756 -4.06094 -3.70241
LeftFoot  3.62439 2.11266 -16.1627
LeftToes  -6.27559e-011 -2.10356e-011 8.24929e-012
150
root  11.518 39.2257 30.4217 -162.309 -76.7174 158.851
RightUpLeg  -10.9423 -26.0179 -15.3502
RightLeg  21.0979 -3.09844 -1.49412
RightFoot  -4.54332 -0.217643 3.13411
RightToes  -1.74623e-010 0 -2.59999e-017
Spine  8.23215 -3.49671 -6.32954
Spine1  15.6944 -5.90594 6.26201
HEad  -33.248 -43.3766 25.9382
LeftShoulder1  2.14928 -3.917 -22.6721
LeftArm  29.3783 -16.8743 -62.3137
LeftForeArm  34.0536 -76.2966 -52.4351
LeftHand  0.775569 11.5557 15.0509
RightShoulder  3.83167 6.28113 33.2768
RightArm  23.0288 -4.24125 31.5149
RightForeArm  12.5926 5.42414 16.3348
RightHand  -0.734171 -0.54035 -17.5264
LeftUpLeg  -2.61746 17.1978 12.4677
LeftLeg  35.5089 -1.75534 -1.07288
LeftFoot  2.29741 1.73097 -14.5366
LeftToes  -6.27559e-011 -2.10356e-011 8.24929e-012
151
root  10.72 39.542 30.7727 -157.828 -77.304 154.156
RightUpLeg  -7.34283 -22.6007 -17.6653
RightLeg  17.9828 -6.40092 -1.98266
RightFoot  -6.56114 -0.155982 2.65102
RightToes  -1.74623e-010 0 -2.59999e-017
Spine  7.80294 -4.10733 -6.46937
Spine1  15.7205 -6.45122 5.82354
HEad  -30.7035 -43.2817 24.5168
LeftShoulder1  2.09405 -3.77761 -22.4553
LeftArm  36.0694 -19.2296 -65.2733
LeftForeArm  37.3776 -76.7913 -55.2225
LeftHand  0.523136 10.3778 12.8023
RightShoulder  3.79264 6.28255 32.8727
RightArm  37.6476 -9.98529 33.2944
RightForeArm  9.02021 12.5539 13.1739
RightHand  -0.510624 -0.554067 -12.263
LeftUpLeg  -3.10922 13.9848 11.2359
LeftLeg  25.3099 4.86881 2.82635
LeftFoot  3.77534 1.42831 -10.9453
LeftToes  -6.27559e-011 -2.10356e-011 8.24929e-012
152
root  9.94394 39.5615 31.2107 -155.811 -76.7258 151.519
RightUpLeg  -5.38423 -19.9492 -19.6507
RightLeg  17.505 -8.09696 -2.75259
RightFoot  -8.7305 -0.115094 2.42094
RightToes  -1.74623e-010 0 -2.59999e-017
Spine  8.08787 -4.09402 -6.91084
Spine1  15.5227 -6.40031 5.25418
HEad  -29.4301 -42.8105 23.4958
LeftShoulder1  2.05363 -3.64428 -22.4236
LeftArm  41.827 -21.4919 -67.8664
LeftForeArm  38.8352 -76.9144 -55.6916
LeftHand  0.188294 8.64559 7.83655
RightShoulder  3.7609 6.27516 32.5771
RightArm  44.4298 -14.6931 33.8313
RightForeArm  -0.17966 18.2329 8.89013
RightHand  -0.166185 -1.01549 -4.15061
LeftUpLeg  -3.06471 9.08631 10.153
LeftLeg  15.8255 7.63562 2.50094
LeftFoot  7.06975 1.80522 -11.3492
LeftToes  -6.27559e-011 -2.10356e-011 8.24929e-012
153
root  9.28534 39.0807 31.7681 -156.869 -75.4058 151.734
RightUpLeg  -6.62251 -16.4468 -21.3231
RightLeg  22.2108 -6.63179 -3.18381
RightFoot  -11.1923 -0.0799689 3.11315
RightToes  -1.74623e-010 0 -2.59999e-017
Spine  9.93602 -3.74053 -7.72225
Spine1  14.4464 -6.2474 5.06483
HEad  -29.1468 -41.3346 22.1859
LeftShoulder1  2.00345 -3.52579 -22.1793
LeftArm  44.9267 -22.9848 -69.7779
LeftForeArm  42.1858 -77.2304 -57.222
LeftHand  -0.0141805 7.73947 1.29312
RightShoulder  3.66336 6.18412 31.9287
RightArm  42.3013 -17.0974 34.1996
RightForeArm  -5.32401 21.5895 6.09012
RightHand  0.0290422 -1.89918 1.33224
LeftUpLeg  -4.67908 4.24988 9.32871
LeftLeg  13.2864 3.51669 1.12299
LeftFoot  7.01688 2.15935 -13.5771
LeftToes  -6.27559e-011 -2.10356e-011 8.24929e-012
154
root  8.74263 37.9993 32.3644 -159.794 -73.8681 153.587
RightUpLeg  -10.4405 -11.5162 -22.7689
RightLeg  31.2111 -3.29695 -2.37588
RightFoot  -13.0686 -0.025854 4.18503
RightToes  -1.74623e-010 0 -2.59999e-017
Spine  12.7106 -3.352 -9.28858
Spine1  13.1101 -6.44292 5.32515
HEad  -28.6156 -38.7562 20.3996
LeftShoulder1  1.9254 -3.4627 -21.2617
LeftArm  45.0662 -23.5226 -70.9178
LeftForeArm  48.2623 -77.8759 -61.7622
LeftHand  -0.0628769 6.89238 -1.78946
RightShoulder  3.51825 6.06971 30.8546
RightArm  33.3636 -17.4666 34.3978
RightForeArm  -3.66387 24.668 5.38244
RightHand  0.102309 -1.80609 3.66892
LeftUpLeg  -9.24293 2.98431 9.38364
LeftLeg  22.764 -3.25961 -1.19311
LeftFoot  0.335703 1.69395 -16.5657
LeftToes  -6.27559e-011 -2.10356e-011 8.24929e-012
155
root  8.20146 36.4484 32.886 -163.584 -71.7229 155.723
RightUpLeg  -14.9166 -6.74974 -24.4421
RightLeg  41.9714 -1.26631 -1.5263
RightFoot  -15.4883 0.11685 6.06625
RightToes  -1.74623e-010 0 -2.59999e-017
Spine  13.9799 -2.58801 -11.8171
Spine1  14.3343 -6.51908 5.8135
HEad  -28.4269 -36.0545 19.4356
LeftShoulder1  1.8129 -3.33662 -20.0462
LeftArm  44.1024 -25.1935 -71.4009
LeftForeArm  47.5888 -77.9073 -62.8377
LeftHand  -0.0496056 6.03071 -2.26014
RightShoulder  3.48078 6.03058 30.6099
RightArm  20.9019 -15.5321 33.9918
RightForeArm  1.40364 28.2354 6.03316
RightHand  0.12351 -1.4548 3.89955
LeftUpLeg  -13.031 5.38452 9.90573
LeftLeg  37.0949 -6.04938 -4.46581
LeftFoot  -9.3769 0.380804 -19.092
LeftToes  -6.27559e-011 -2.10356e-011 8.24929e-012
156
root  7.62247 35.0985 33.1842 -165.174 -69.7578 155.413
RightUpLeg  -17.5685 -4.09938 -26.752
RightLeg  50.2477 -0.956626 -1.59276
RightFoot  -18.3592 0.430268 8.98955
RightToes  -1.74623e-010 0 -2.59999e-017
Spine  12.8054 -1.90996 -15.5244
Spine1  18.0445 -6.7296 6.10947
HEad  -28.5133 -34.1624 18.8053
LeftShoulder1  1.78763 -3.17415 -20.3363
LeftArm  42.4579 -27.6959 -69.2672
LeftForeArm  40.3152 -77.2317 -58.3597
LeftHand  -0.0814977 7.50878 -1.87963
RightShoulder  3.64545 6.06276 32.2232
RightArm  6.8941 -11.7791 33.6784
RightForeArm  8.90079 31.097 6.31434
RightHand  -0.0189506 -1.50888 -0.211727
LeftUpLeg  -13.7932 8.03199 9.76322
LeftLeg  46.5142 -5.92666 -6.20706
LeftFoot  -16.9518 -0.82385 -18.8324
LeftToes  -6.27559e-011 -2.10356e-011 8.24929e-012
157
root  6.9395 34.5864 33.2334 -165.961 -69.5785 154.799
RightUpLeg  -16.5 -4.1148 -28.3221
RightLeg  52.7757 -0.260407 -0.744682
RightFoot  -19.6697 0.708656 11.5367
RightToes  -1.74623e-010 0 -2.59999e-017
Spine  11.2272 -2.18564 -18.0755
Spine1  20.4942 -7.54601 6.28175
HEad  -27.1598 -33.3035 17.08
LeftShoulder1  1.93172 -3.23824 -22.3382
LeftArm  38.9302 -25.8208 -63.9978
LeftForeArm  38.8629 -76.8126 -54.6939
LeftHand  0.092486 10.4627 3.27254
RightShoulder  3.85071 6.12434 34.1096
RightArm  -6.38778 -10.0102 34.0832
RightForeArm  17.5333 36.2359 7.17013
RightHand  -0.185248 -3.33104 -9.76884
LeftUpLeg  -12.422 9.50783 9.9474
LeftLeg  49.5352 -6.59136 -7.74894
LeftFoot  -20.0226 -1.16982 -16.8797
LeftToes  -6.27559e-011 -2.10356e-011 8.24929e-012
158
root  6.16839 35.1871 32.9753 -168.78 -70.2743 156.868
RightUpLeg  -12.1049 -5.10751 -27.889
RightLeg  49.1943 0.871973 0.742443
RightFoot  -18.2442 0.705307 13.7548
RightToes  -1.74623e-010 0 -2.59999e-017
Spine  9.91925 -2.88641 -17.9919
Spine1  20.7638 -8.14899 6.23208
HEad  -23.7852 -33.3793 15.2592
LeftShoulder1  2.1091 -3.40105 -24.3375
LeftArm  34.5841 -17.4193 -58.0679
LeftForeArm  43.6846 -77.1843 -55.882
LeftHand  0.675611 11.9082 12.7542
RightShoulder  3.78529 6.01132 33.8967
RightArm  -12.2132 -12.0748 35.0785
RightForeArm  21.4927 45.1383 9.77537
RightHand  0.0640777 -5.89278 -18.166
LeftUpLeg  -8.45711 9.95286 11.4157
LeftLeg  46.311 -7.79908 -8.21767
LeftFoot  -18.8113 -1.00844 -17.1004
LeftToes  -6.27559e-011 -2.10356e-011 8.24929e-012
159
root  5.43818 36.7656 32.4593 -172.488 -70.0518 160.662
RightUpLeg  -7.33179 -6.06744 -26.2125
RightLeg  41.8191 1.75402 1.41034
RightFoot  -12.0791 0.00472155 15.8357
RightToes  -1.74623e-010 0 -2.59999e-017
Spine  7.64963 -3.19563 -16.8098
Spine1  20.0754 -7.80177 5.92482
HEad  -18.6878 -34.2024 14.3095
LeftShoulder1  2.19997 -3.39085 -25.7622
LeftArm  31.786 -6.58658 -52.3904
LeftForeArm  46.4672 -77.6998 -60.4468
LeftHand  0.944953 11.4635 18.2169
RightShoulder  3.53262 5.7482 32.3035
RightArm  -11.268 -15.9265 34.763
RightForeArm  23.4594 54.8753 14.0846
RightHand  0.147875 -6.65623 -15.7919
LeftUpLeg  -2.60987 8.95686 12.514
LeftLeg  37.1062 -7.58478 -5.75713
LeftFoot  -12.8197 -0.158571 -18.5713
LeftToes  -6.27559e-011 -2.10356e-011 8.24929e-012
160
root  4.85933 38.6308 31.9024 -175.021 -69.3904 164.204
RightUpLeg  -4.44046 -7.53584 -24.4109
RightLeg  34.3867 3.35338 2.21597
RightFoot  -1.09512 -1.36014 15.0546
RightToes  -1.74623e-010 0 -2.59999e-017
Spine  5.25736 -3.28773 -15.3732
Spine1  17.9206 -7.05837 5.88969
HEad  -12.8692 -35.0091 13.2114
LeftShoulder1  2.21832 -3.36382 -26.1639
LeftArm  30.2813 3.26385 -47.3328
LeftForeArm  47.5343 -77.9625 -63.9078
LeftHand  0.849314 11.5958 16.3115
RightShoulder  3.27644 5.43857 30.7533
RightArm  -8.84558 -19.5461 32.8433
RightForeArm  26.5839 63.4915 20.3925
RightHand  -0.0263128 -5.28293 -5.51571
LeftUpLeg  1.93354 7.08982 12.4951
LeftLeg  26.5369 -4.08978 -1.8976
LeftFoot  -1.00958 1.70972 -18.6861
LeftToes  -6.27559e-011 -2.10356e-011 8.24929e-012
